<svg width="237" height="29" viewBox="0 0 237 29" fill="none" xmlns="http://www.w3.org/2000/svg">
<path d="M16.6521 25.7926C14.889 27.5558 12.7927 28.4373 10.3632 28.4373C8.64175 28.4373 7.14936 28.1388 5.88603 27.5419C4.63658 26.9449 3.64397 26.0842 2.90819 24.9597C2.1724 23.8352 1.63098 22.551 1.28391 21.1072C0.950723 19.6634 0.784131 18.0183 0.784131 16.1719C0.784131 14.7975 0.853544 13.562 0.992372 12.4652C1.14508 11.3685 1.38803 10.3204 1.72121 9.32081C2.0544 8.32125 2.51253 7.46052 3.0956 6.73862C3.67868 6.00284 4.39364 5.36423 5.24048 4.82281C6.08733 4.28138 7.11465 3.87878 8.32244 3.61501C9.53024 3.33736 10.9046 3.19853 12.4456 3.19853C13.1397 3.19853 13.7992 3.24018 14.4239 3.32348C15.0625 3.40677 15.6039 3.51089 16.0482 3.63584C16.4924 3.7469 16.9089 3.89267 17.2976 4.07314C17.7002 4.23973 18.0126 4.39244 18.2347 4.53127C18.4707 4.65622 18.6859 4.79504 18.8802 4.94775C19.0746 5.10046 19.1926 5.20458 19.2343 5.26011C19.2898 5.31565 19.3314 5.35729 19.3592 5.38506L19.0468 10.1746H15.2569L14.0699 7.40499C13.7645 7.2384 13.2716 7.15511 12.5914 7.15511C12.0361 7.15511 11.5779 7.20369 11.217 7.30087C10.856 7.39805 10.4951 7.60629 10.1341 7.9256C9.78707 8.23101 9.50942 8.6822 9.30118 9.27916C9.10682 9.86223 8.94717 10.6605 8.82222 11.6739C8.69728 12.6735 8.63481 13.8952 8.63481 15.339C8.63481 18.3515 8.79446 20.5866 9.11376 22.0443C9.44694 23.502 10.1064 24.2308 11.092 24.2308C11.5779 24.2308 11.9875 24.1892 12.3207 24.1059C12.6539 24.0087 12.9662 23.8421 13.2577 23.6061C13.5493 23.3562 13.7645 22.9953 13.9033 22.5233C14.0421 22.0374 14.1115 21.4196 14.1115 20.6699V18.5459L11.3628 17.9211V13.673H20.6295L20.6086 28H16.902L16.6521 25.7926ZM31.3098 25.9384C31.9206 25.9384 32.3857 25.6885 32.705 25.1888C33.0382 24.6751 33.2048 23.974 33.2048 23.0855V16.5051C33.2048 13.798 32.5662 12.4444 31.289 12.4444C30.692 12.4444 30.2269 12.6874 29.8937 13.1733C29.5606 13.6592 29.394 14.3464 29.394 15.2348V22.0027C29.394 24.6265 30.0326 25.9384 31.3098 25.9384ZM31.1432 28.4373C27.964 28.4373 25.6387 27.7154 24.1671 26.2716C22.6956 24.8278 21.9598 22.5233 21.9598 19.358C21.9598 16.2205 22.7025 13.8605 24.1879 12.2778C25.6734 10.6813 28.089 9.88306 31.4347 9.88306C34.6972 9.88306 37.0503 10.6466 38.4941 12.1737C39.9518 13.6869 40.6806 15.9845 40.6806 19.0665C40.6806 22.2595 39.9101 24.6196 38.3691 26.1467C36.842 27.6738 34.4334 28.4373 31.1432 28.4373ZM53.6111 28C52.0562 28 50.6679 27.6738 49.4462 27.0213V28H42.6576V4.44798L41.4082 3.69831V1.76167L48.0927 0.720467H49.4462V11.9238C49.6684 11.6739 49.9113 11.4379 50.1751 11.2158C50.4389 10.9937 50.7582 10.7785 51.133 10.5703C51.5078 10.362 51.9312 10.1954 52.4033 10.0705C52.8892 9.94553 53.4028 9.88306 53.9442 9.88306C56.2349 9.88306 57.9147 10.6674 58.9837 12.2362C60.0665 13.8049 60.6079 15.9776 60.6079 18.7541C60.6079 20.0591 60.4622 21.2669 60.1706 22.3775C59.8791 23.4742 59.4487 24.446 58.8795 25.2929C58.3104 26.1397 57.5746 26.8061 56.6722 27.292C55.7837 27.764 54.7633 28 53.6111 28ZM50.5499 25.1055C52.4102 25.1055 53.3403 23.6825 53.3403 20.8365V17.2964C53.3403 16.1025 53.1182 15.1863 52.674 14.5477C52.2436 13.8952 51.6883 13.5689 51.008 13.5689C50.4944 13.5689 49.9738 13.7563 49.4462 14.1312V24.9597C49.6545 25.0152 49.8488 25.0569 50.0293 25.0846C50.2098 25.0985 50.3833 25.1055 50.5499 25.1055ZM72.1267 17.234C72.1267 15.4709 72.0365 14.2214 71.856 13.4856C71.6756 12.7498 71.3424 12.3819 70.8565 12.3819C70.44 12.3819 70.0999 12.4583 69.8361 12.611C69.5723 12.7498 69.378 12.9789 69.253 13.2982C69.1281 13.6036 69.0448 13.9229 69.0031 14.2561C68.9754 14.5754 68.9615 14.985 68.9615 15.4847V17.234H72.1267ZM70.4608 28.4373C68.906 28.4373 67.5524 28.2013 66.4001 27.7293C65.2617 27.2573 64.3594 26.5978 63.693 25.751C63.0405 24.9042 62.5616 23.9532 62.2561 22.8981C61.9507 21.8291 61.798 20.6422 61.798 19.3372C61.798 16.2275 62.5893 13.8743 64.172 12.2778C65.7546 10.6813 67.9689 9.88306 70.8148 9.88306C73.5497 9.88306 75.5072 10.5286 76.6872 11.8197C77.8673 13.0969 78.4573 15.1585 78.4573 18.0044V20.3159H68.9407V20.7116C68.9407 21.5307 69.024 22.204 69.1906 22.7315C69.371 23.2591 69.6279 23.6478 69.961 23.8977C70.2942 24.1475 70.6344 24.3141 70.9814 24.3974C71.3285 24.4807 71.7519 24.5224 72.2517 24.5224C72.7376 24.5224 73.2582 24.4599 73.8135 24.335C74.3827 24.21 74.9519 24.0157 75.5211 23.7519C76.1041 23.4881 76.59 23.1758 76.9788 22.8148L78.2074 24.918C77.6937 25.751 76.9371 26.4521 75.9376 27.0213C74.9519 27.5766 74.0009 27.9514 73.0847 28.1458C72.1684 28.3401 71.2938 28.4373 70.4608 28.4373ZM87.4393 28H80.7131V14.5268L79.4637 13.7563V11.4032L83.9408 10.2995H85.6276L86.2315 15.2557C86.8007 11.8544 88.6262 10.1538 91.7082 10.1538C92.0553 10.1538 92.4162 10.2162 92.7911 10.3412L92.083 17.7546C91.7915 17.4908 91.1529 17.3589 90.1672 17.3589C88.7512 17.3589 87.8419 17.7337 87.4393 18.4834V28ZM101.166 28H94.4399V14.5268L93.1905 13.7563V11.5282L97.6676 10.2995H101.208V12.9858L101.458 12.6735C101.624 12.4514 101.867 12.1876 102.186 11.8822C102.52 11.5767 102.888 11.2783 103.29 10.9867C103.693 10.6813 104.172 10.4245 104.727 10.2162C105.296 9.99412 105.851 9.88306 106.393 9.88306C108.295 9.88306 109.635 10.4037 110.412 11.4449C111.203 12.4861 111.599 14.2283 111.599 16.6717C111.599 16.755 111.599 16.8799 111.599 17.0465C111.585 17.2131 111.578 17.345 111.578 17.4422V28H104.706V16.8383C104.748 15.5333 104.193 14.8808 103.04 14.8808C102.957 14.8808 102.874 14.8878 102.79 14.9017C102.721 14.9155 102.652 14.9294 102.582 14.9433C102.527 14.9572 102.457 14.985 102.374 15.0266C102.304 15.0544 102.242 15.0821 102.186 15.1099C102.131 15.1238 102.068 15.1585 101.999 15.214C101.93 15.2557 101.874 15.2904 101.832 15.3181C101.791 15.3459 101.728 15.3945 101.645 15.4639C101.576 15.5194 101.52 15.5611 101.478 15.5889C101.451 15.6166 101.395 15.6652 101.312 15.7346C101.242 15.7902 101.194 15.8318 101.166 15.8596V28ZM123.202 26.1467L122.994 26.3757C122.855 26.5423 122.64 26.7367 122.349 26.9588C122.071 27.1809 121.745 27.403 121.37 27.6252C121.009 27.8473 120.565 28.0347 120.037 28.1874C119.51 28.354 118.968 28.4373 118.413 28.4373C114.665 28.4373 112.79 26.584 112.79 22.8773C112.79 22.1554 112.922 21.4959 113.186 20.899C113.45 20.2882 113.79 19.7745 114.206 19.358C114.623 18.9415 115.123 18.5736 115.706 18.2543C116.289 17.9211 116.872 17.6643 117.455 17.4838C118.052 17.2895 118.677 17.1298 119.329 17.0049C119.982 16.8799 120.565 16.7966 121.078 16.755C121.592 16.7134 122.085 16.6925 122.557 16.6925V16.3177C122.557 15.4709 122.328 14.8739 121.87 14.5268C121.426 14.1798 120.704 14.0062 119.704 14.0062C118.843 14.0062 117.948 14.1103 117.018 14.3186C116.088 14.5129 115.359 14.7489 114.831 15.0266L113.498 12.1945C114.443 11.5837 115.671 11.0492 117.184 10.5911C118.698 10.1191 120.239 9.88306 121.807 9.88306C123.196 9.88306 124.341 10.0219 125.243 10.2995C126.146 10.5633 126.874 11.0214 127.43 11.6739C127.999 12.3125 128.402 13.1316 128.638 14.1312C128.874 15.1168 128.992 16.3732 128.992 17.9003V26.3757L129.575 28H123.869L123.202 26.1467ZM121.557 24.7723C121.738 24.7723 121.904 24.7376 122.057 24.6681C122.224 24.5849 122.349 24.5085 122.432 24.4391C122.515 24.3558 122.557 24.3141 122.557 24.3141V19.3164C121.71 19.3164 121.037 19.5524 120.537 20.0244C120.037 20.4825 119.787 21.1975 119.787 22.1693C119.787 23.9046 120.377 24.7723 121.557 24.7723ZM138.381 28H131.655V14.5268L130.405 13.7563V11.5282L134.883 10.2995H138.423V12.9858L138.673 12.6735C138.839 12.4514 139.082 12.1876 139.401 11.8822C139.735 11.5767 140.102 11.2783 140.505 10.9867C140.908 10.6813 141.387 10.4245 141.942 10.2162C142.511 9.99412 143.066 9.88306 143.608 9.88306C145.51 9.88306 146.849 10.4037 147.627 11.4449C148.418 12.4861 148.814 14.2283 148.814 16.6717C148.814 16.755 148.814 16.8799 148.814 17.0465C148.8 17.2131 148.793 17.345 148.793 17.4422V28H141.921V16.8383C141.963 15.5333 141.407 14.8808 140.255 14.8808C140.172 14.8808 140.089 14.8878 140.005 14.9017C139.936 14.9155 139.866 14.9294 139.797 14.9433C139.741 14.9572 139.672 14.985 139.589 15.0266C139.519 15.0544 139.457 15.0821 139.401 15.1099C139.346 15.1238 139.283 15.1585 139.214 15.214C139.145 15.2557 139.089 15.2904 139.047 15.3181C139.006 15.3459 138.943 15.3945 138.86 15.4639C138.791 15.5194 138.735 15.5611 138.693 15.5889C138.666 15.6166 138.61 15.6652 138.527 15.7346C138.457 15.7902 138.409 15.8318 138.381 15.8596V28ZM150.963 28C150.922 27.528 150.811 26.9171 150.63 26.1675C150.45 25.4039 150.276 24.7931 150.109 24.335L157.523 14.8392L159.855 13.1108C159.23 13.1108 158.661 13.1455 158.148 13.2149C157.648 13.2704 157.224 13.3399 156.877 13.4232C156.53 13.5064 156.211 13.6383 155.919 13.8188C155.628 13.9854 155.406 14.1312 155.253 14.2561C155.1 14.3672 154.948 14.5407 154.795 14.7767C154.642 15.0127 154.538 15.1932 154.483 15.3181C154.441 15.4292 154.371 15.6166 154.274 15.8804C154.177 16.1442 154.115 16.3177 154.087 16.401H151.213V10.2995H165.144C165.214 10.7716 165.332 11.313 165.498 11.9238C165.679 12.5347 165.88 13.1108 166.102 13.6522L159.918 22.8148L157.356 24.7098C158.689 24.7098 159.737 24.6543 160.501 24.5432C161.653 24.3766 162.403 24.0087 162.75 23.4395C162.889 23.2174 163.083 22.6413 163.333 21.7111H165.769V28H150.963ZM177.073 26.1467L176.864 26.3757C176.726 26.5423 176.51 26.7367 176.219 26.9588C175.941 27.1809 175.615 27.403 175.24 27.6252C174.879 27.8473 174.435 28.0347 173.907 28.1874C173.38 28.354 172.838 28.4373 172.283 28.4373C168.535 28.4373 166.661 26.584 166.661 22.8773C166.661 22.1554 166.792 21.4959 167.056 20.899C167.32 20.2882 167.66 19.7745 168.077 19.358C168.493 18.9415 168.993 18.5736 169.576 18.2543C170.159 17.9211 170.742 17.6643 171.325 17.4838C171.922 17.2895 172.547 17.1298 173.199 17.0049C173.852 16.8799 174.435 16.7966 174.949 16.755C175.462 16.7134 175.955 16.6925 176.427 16.6925V16.3177C176.427 15.4709 176.198 14.8739 175.74 14.5268C175.296 14.1798 174.574 14.0062 173.574 14.0062C172.713 14.0062 171.818 14.1103 170.888 14.3186C169.958 14.5129 169.229 14.7489 168.701 15.0266L167.369 12.1945C168.313 11.5837 169.541 11.0492 171.054 10.5911C172.568 10.1191 174.109 9.88306 175.677 9.88306C177.066 9.88306 178.211 10.0219 179.113 10.2995C180.016 10.5633 180.745 11.0214 181.3 11.6739C181.869 12.3125 182.272 13.1316 182.508 14.1312C182.744 15.1168 182.862 16.3732 182.862 17.9003V26.3757L183.445 28H177.739L177.073 26.1467ZM175.427 24.7723C175.608 24.7723 175.775 24.7376 175.927 24.6681C176.094 24.5849 176.219 24.5085 176.302 24.4391C176.385 24.3558 176.427 24.3141 176.427 24.3141V19.3164C175.58 19.3164 174.907 19.5524 174.407 20.0244C173.907 20.4825 173.657 21.1975 173.657 22.1693C173.657 23.9046 174.247 24.7723 175.427 24.7723ZM185.296 28V3.59419H192.189V22.4191H198.394V28H185.296ZM212.278 28L211.341 24.1059H205.427L204.635 28H198.513L204.864 5.28094L204.364 3.59419H212.965L219.92 28H212.278ZM208.113 10.7577L206.28 19.8578H210.32L208.113 10.7577ZM236.151 26.2716L235.964 26.5007C235.825 26.6395 235.589 26.82 235.256 27.0421C234.937 27.2503 234.548 27.4655 234.09 27.6876C233.645 27.8959 233.049 28.0694 232.299 28.2082C231.549 28.361 230.744 28.4373 229.883 28.4373C228.065 28.4373 226.51 28.1388 225.219 27.5419C223.928 26.931 222.914 26.0495 222.178 24.8972C221.456 23.7311 220.936 22.4191 220.617 20.9615C220.297 19.4899 220.138 17.7893 220.138 15.8596C220.138 13.8049 220.297 12.0349 220.617 10.5494C220.936 9.0501 221.463 7.73818 222.199 6.61368C222.949 5.4753 223.976 4.62151 225.281 4.05232C226.586 3.48313 228.176 3.19853 230.05 3.19853C230.911 3.19853 231.716 3.27489 232.465 3.4276C233.229 3.58031 233.826 3.75384 234.256 3.9482C234.701 4.14256 235.096 4.36468 235.443 4.61457C235.804 4.86446 236.026 5.03799 236.11 5.13517C236.207 5.23235 236.276 5.3087 236.318 5.36423L236.006 10.1538H232.84L231.757 7.67571C231.508 7.60629 231.299 7.57159 231.133 7.57159C230.203 7.57159 229.488 7.78677 228.988 8.21713C228.488 8.63361 228.106 9.45963 227.842 10.6952C227.579 11.9169 227.447 13.68 227.447 15.9845C227.447 17.3589 227.53 18.5598 227.697 19.5871C227.877 20.6144 228.092 21.4057 228.342 21.961C228.592 22.5024 228.891 22.9398 229.238 23.2729C229.585 23.6061 229.897 23.8213 230.175 23.9185C230.452 24.0018 230.751 24.0434 231.07 24.0434C231.778 24.0434 232.521 23.9601 233.298 23.7935C234.076 23.6131 234.714 23.3423 235.214 22.9814L236.151 26.2716Z" fill="#574360"/>
</svg>
